<?xml version="1.0" encoding="UTF-8" standalone="no"?>
<!DOCTYPE svg PUBLIC "-//W3C//DTD SVG 1.1//EN" "http://www.w3.org/Graphics/SVG/1.1/DTD/svg11.dtd">
<svg version="1.1" xmlns="http://www.w3.org/2000/svg" xmlns:xlink="http://www.w3.org/1999/xlink" preserveAspectRatio="xMidYMid meet" viewBox="0 0 512 512" width="512" height="512"><defs><path d="M262.73 132.58C265.59 137.06 268.66 142.58 271.96 149.15C299.87 204.82 312.29 266.97 307.93 329.09C306.51 349.31 304.05 363.79 300.55 372.51C297.92 379.06 296.73 382 296.98 381.35C290.72 397.7 273.21 406.78 256.24 402.49C248.61 400.56 229.53 395.73 199 388.01C216.76 401.62 227.87 410.13 232.31 413.53C247.81 425.4 261 440.02 271.23 456.65C274.19 461.46 268.14 451.62 271.23 456.65C277.43 466.73 292.41 465.61 297.05 454.73C316.93 408.07 299.11 449.89 302.39 442.2C358.61 310.23 324.48 157.11 217.53 61.52C211.98 56.55 252.77 93.01 216.85 60.9C214.18 58.52 210.41 62.12 212.66 64.9C234.02 91.21 250.71 113.77 262.73 132.58Z" id="c5E7pvZLef"/></defs><g><g><use xlink:href="#c5E7pvZLef" opacity="1" fill="#000000" fill-opacity="1"/><g><use xlink:href="#c5E7pvZLef" opacity="1" fill-opacity="0" stroke="#000000" stroke-width="1" stroke-opacity="1"/></g></g></g></svg>