<?xml version="1.0" encoding="UTF-8" standalone="no"?>
<!DOCTYPE svg PUBLIC "-//W3C//DTD SVG 1.1//EN" "http://www.w3.org/Graphics/SVG/1.1/DTD/svg11.dtd">
<svg version="1.1" xmlns="http://www.w3.org/2000/svg" xmlns:xlink="http://www.w3.org/1999/xlink" preserveAspectRatio="xMidYMid meet" viewBox="0 0 682.667 682.667" width="683" height="683"><defs><path d="M202.6 60.62C212.52 64.47 219.5 73.48 220.77 84.04C234.92 201.87 251.59 288.16 270.79 342.91C301.46 430.41 392.29 537.63 412.86 531.79C425.1 528.31 454.45 493.49 500.91 427.35C502.2 425.52 505.04 427.06 504.2 429.14C497.47 445.76 480.64 487.32 453.73 553.81C460.38 593.32 456.82 610.92 443.04 606.62C386.17 588.87 279.84 473.59 239.87 361.23C199.89 248.86 190.59 114.3 177.22 99.04C170.94 91.87 162.88 77.71 153.05 56.54C149.92 49.82 156.58 42.72 163.49 45.41C174.53 49.7 190.97 56.09 202.6 60.62Z" id="bdT0lSzny"/></defs><g><g><use xlink:href="#bdT0lSzny" opacity="1" fill="#000000" fill-opacity="1"/></g></g></svg>