<?xml version="1.0" encoding="UTF-8" standalone="no"?>
<!DOCTYPE svg PUBLIC "-//W3C//DTD SVG 1.1//EN" "http://www.w3.org/Graphics/SVG/1.1/DTD/svg11.dtd">
<svg version="1.1" xmlns="http://www.w3.org/2000/svg" xmlns:xlink="http://www.w3.org/1999/xlink" preserveAspectRatio="xMidYMid meet" viewBox="0 0 512 512" width="512" height="512"><defs><path d="M89.45 164.36C112.55 222.88 126.99 259.46 132.77 274.09C145.99 307.59 175.48 331.97 210.87 338.66C284.12 352.51 335.46 356.74 364.9 351.34C425.61 340.22 365.8 241.78 379.43 255.42C384.41 260.4 403.94 285.36 438.02 330.3C448.07 343.55 451.33 360.76 446.82 376.77C446.07 379.45 444.79 381.76 442.98 383.71C436.69 390.49 356.48 384.14 202.36 364.65C162.96 359.66 129.23 334 113.92 297.35C101.21 266.95 71.85 196.68 55.15 156.7C53.5 152.75 57.62 148.86 61.46 150.73C65.2 152.55 74.53 157.09 89.45 164.36Z" id="c1PDgLj2xo"/></defs><g><g><use xlink:href="#c1PDgLj2xo" opacity="1" fill="#000000" fill-opacity="1"/></g></g></svg>