<?xml version="1.0" encoding="UTF-8" standalone="no"?>
<!DOCTYPE svg PUBLIC "-//W3C//DTD SVG 1.1//EN" "http://www.w3.org/Graphics/SVG/1.1/DTD/svg11.dtd">
<svg version="1.1" xmlns="http://www.w3.org/2000/svg" xmlns:xlink="http://www.w3.org/1999/xlink" preserveAspectRatio="xMidYMid meet" viewBox="0 0 512 512" width="512" height="512"><defs><path d="M141.21 334.47C144.35 360.7 166.35 380.6 192.76 381.12C237.4 381.99 346.23 384.12 396.12 385.1C408.62 385.35 420.27 391.49 427.53 401.67C430.04 405.19 427.02 400.95 429.77 404.82C433.95 410.67 429.54 418.76 422.36 418.42C363.51 415.62 236.8 409.59 185.98 407.17C152.43 405.58 124.78 380.32 120.16 347.05C116.48 320.6 107.3 254.48 92.6 148.69C86.7 144.05 83.02 141.15 81.54 139.99C77.55 136.86 79.55 130.45 84.61 130.14C90.99 129.75 94.96 129.5 101.16 129.12C109.76 128.59 117.27 134.86 118.3 143.41C123.98 190.77 136.26 293.21 141.21 334.47Z" id="b2X3P9nMF"/></defs><g><g><use xlink:href="#b2X3P9nMF" opacity="1" fill="#000000" fill-opacity="1"/></g></g></svg>