<?xml version="1.0" encoding="UTF-8" standalone="no"?>
<!DOCTYPE svg PUBLIC "-//W3C//DTD SVG 1.1//EN" "http://www.w3.org/Graphics/SVG/1.1/DTD/svg11.dtd">
<svg version="1.1" xmlns="http://www.w3.org/2000/svg" xmlns:xlink="http://www.w3.org/1999/xlink" preserveAspectRatio="xMidYMid meet" viewBox="0 0 512 512" width="512" height="512"><defs><path d="M87.32 96.99C84.47 95.35 82.15 92.6 80.36 88.73C78.58 84.88 81.38 80.49 85.62 80.49C121.18 80.49 213.49 80.49 247.72 80.49C255.75 80.49 261.71 87.94 259.93 95.78C259.43 98.01 258.16 103.59 256.14 112.52C255.78 258 255.56 348.92 255.47 385.29C255.44 396.86 264.81 406.25 276.38 406.25C294.9 406.25 329.61 406.25 348.16 406.25C361.85 406.25 375.36 403.14 387.68 397.15C393.36 394.39 390.22 395.92 395.53 393.33C406.41 388.04 419.46 393.56 423.25 405.05C424.54 408.99 424.32 408.31 426.37 414.56C428.03 419.6 424.31 424.79 419.01 424.83C381.01 425.16 288.61 425.97 253.33 426.28C239.94 426.39 229.03 415.57 229.03 402.19C229.03 402.19 229.03 402.19 229.03 402.19C229.03 246.75 229.03 149.6 229.03 110.74C229.03 105.65 224.91 101.52 219.82 101.52C203.45 101.52 162.52 101.52 97.04 101.52C95.84 101.54 92.6 100.03 87.32 96.99Z" id="b3L0kt3ocX"/></defs><g><g><use xlink:href="#b3L0kt3ocX" opacity="1" fill="#000000" fill-opacity="1"/><g><use xlink:href="#b3L0kt3ocX" opacity="1" fill-opacity="0" stroke="#000000" stroke-width="1" stroke-opacity="1"/></g></g></g></svg>