<?xml version="1.0" encoding="UTF-8" standalone="no"?>
<!DOCTYPE svg PUBLIC "-//W3C//DTD SVG 1.1//EN" "http://www.w3.org/Graphics/SVG/1.1/DTD/svg11.dtd">
<svg version="1.1" xmlns="http://www.w3.org/2000/svg" xmlns:xlink="http://www.w3.org/1999/xlink" preserveAspectRatio="xMidYMid meet" viewBox="0 0 512 512" width="512" height="512"><defs><path d="M344.6 127.94C349.89 127.6 354.35 131.8 354.35 137.09C354.35 184.1 354.35 314.35 354.35 361.11C354.35 367.2 349.42 372.14 343.33 372.14C320.06 372.14 261.65 372.14 238.47 372.14C237.34 372.14 237.21 373.79 238.32 373.97C256.38 376.88 283.17 381.2 297.22 383.47C317.69 386.77 336.77 395.93 352.15 409.84C359.12 416.14 361.62 418.4 369.88 425.86C376.47 431.82 387 427.15 387 418.26C387 354.71 387 175.74 387 109.33C387 104.54 382.96 100.74 378.18 101.03C316.55 104.72 144.23 115.05 83.54 118.69C79 118.96 77.31 124.78 81 127.44C85.4 130.61 89.92 133.88 94.9 137.47C100.14 141.25 106.52 143.09 112.97 142.68C161.25 139.61 296.28 131.01 344.6 127.94Z" id="cEi7xUCiI"/></defs><g><g><use xlink:href="#cEi7xUCiI" opacity="1" fill="#000000" fill-opacity="1"/></g></g></svg>