<?xml version="1.0" encoding="UTF-8" standalone="no"?>
<!DOCTYPE svg PUBLIC "-//W3C//DTD SVG 1.1//EN" "http://www.w3.org/Graphics/SVG/1.1/DTD/svg11.dtd">
<svg version="1.1" xmlns="http://www.w3.org/2000/svg" xmlns:xlink="http://www.w3.org/1999/xlink" preserveAspectRatio="xMidYMid meet" viewBox="0 0 512 512" width="512" height="512"><defs><path d="M350.6 123.61C356.04 123.13 359.86 128.85 357.33 133.69C339.22 168.3 344.37 158.45 339.67 167.44C291.66 259.21 224.35 339.48 142.36 402.76C138.6 405.66 129.21 412.9 114.18 424.5C82.6 447.75 62.86 462.28 54.96 468.09C53.67 469.05 54.9 471.05 56.34 470.32C102.43 446.93 85.99 455.27 96.94 449.72C219.96 387.3 318.52 285.47 376.89 160.49C386.59 139.72 392.14 128.73 393.55 127.5C399.12 122.66 404.1 115.2 408.5 105.11C411.93 97.25 405.61 88.6 397.07 89.5C344.34 95.01 203.13 109.76 149.87 115.32C144.61 115.87 143.09 122.8 147.63 125.5C152.34 128.3 144.79 123.8 147.63 125.5C162.94 134.6 180.73 138.65 198.48 137.08C231.42 134.17 314.72 126.79 350.6 123.61Z" id="evfI4xsTM"/></defs><g><g><use xlink:href="#evfI4xsTM" opacity="1" fill="#000000" fill-opacity="1"/><g><use xlink:href="#evfI4xsTM" opacity="1" fill-opacity="0" stroke="#000000" stroke-width="1" stroke-opacity="1"/></g></g></g></svg>