<?xml version="1.0" encoding="UTF-8" standalone="no"?>
<!DOCTYPE svg PUBLIC "-//W3C//DTD SVG 1.1//EN" "http://www.w3.org/Graphics/SVG/1.1/DTD/svg11.dtd">
<svg version="1.1" xmlns="http://www.w3.org/2000/svg" xmlns:xlink="http://www.w3.org/1999/xlink" preserveAspectRatio="xMidYMid meet" viewBox="0 0 512 512" width="512" height="512"><defs><path d="M156.19 202.65C155.06 211.87 162.59 219.84 171.85 219.25C212.03 216.7 320.49 209.8 362.1 207.16C368.47 206.75 374.38 210.46 376.8 216.36C377.89 219.03 377.7 218.58 378.94 221.61C381.07 226.81 381.09 232.63 379.01 237.85C331.06 357.98 304.28 424.57 298.67 437.62C294.84 446.55 288.56 455.52 279.84 464.53C273.91 470.66 263.75 469.37 259.53 461.95C256.1 455.92 256.71 456.98 253.89 452.02C246.33 438.72 235.73 427.41 222.95 419.01C213.88 413.04 197.62 402.36 186.43 395C185.16 394.17 186.13 392.22 187.56 392.72C205.36 399.03 246.26 413.52 263.43 419.61C270.74 422.2 278.78 418.53 281.62 411.31C295.52 375.92 332.79 281.02 346.86 245.21C348.86 240.11 344.94 234.63 339.47 234.89C297.54 236.84 188 241.93 147.23 243.82C138.06 244.25 130.64 236.45 131.52 227.31C133.52 206.54 138.53 154.62 146.54 71.54C144.59 66.63 143.38 63.56 142.89 62.34C141.19 58.03 145.78 53.94 149.86 56.12C154.41 58.55 160.37 61.73 165.99 64.73C169.98 66.86 172.25 71.23 171.7 75.72C168.17 104.65 159.47 175.77 156.19 202.65Z" id="cqvpZwgv"/></defs><g><g><use xlink:href="#cqvpZwgv" opacity="1" fill="#000000" fill-opacity="1"/></g></g></svg>