<?xml version="1.0" encoding="UTF-8" standalone="no"?>
<!DOCTYPE svg PUBLIC "-//W3C//DTD SVG 1.1//EN" "http://www.w3.org/Graphics/SVG/1.1/DTD/svg11.dtd">
<svg version="1.1" xmlns="http://www.w3.org/2000/svg" xmlns:xlink="http://www.w3.org/1999/xlink" preserveAspectRatio="xMidYMid meet" viewBox="0 0 512 512" width="512" height="512"><defs><path d="M320.4 76.96C329.97 75.89 337.01 85.73 332.91 94.44C332.09 96.17 330.05 100.5 326.79 107.43L276 376.5C335.33 344.36 372.41 324.28 387.24 316.25C388.3 315.67 389.28 317.12 388.36 317.9C368.69 334.36 343.75 355.23 330.69 366.16C303.69 388.76 279.96 414.99 260.15 444.1C258.2 446.98 266.12 435.33 260.15 444.1C255.01 451.67 244.33 452.86 237.65 446.61C232.92 442.19 234.34 443.52 230.34 439.78C221.22 431.25 220.48 417.04 228.67 407.61C231.14 404.77 226.58 410.02 229.73 406.4C237.13 397.87 242.18 387.57 244.4 376.5C255.03 323.3 284.94 173.63 295.92 118.69C296.73 114.64 293.36 110.97 289.26 111.44C259 114.85 178.67 123.91 148.94 127.27C142.04 128.04 135.17 125.57 130.35 120.57C126.48 116.56 122.33 112.25 118.41 108.18C115.38 105.04 117.27 99.79 121.61 99.31C165.75 94.35 278.52 81.67 320.4 76.96Z" id="a6564B05zx"/></defs><g><g><use xlink:href="#a6564B05zx" opacity="1" fill="#000000" fill-opacity="1"/></g></g></svg>