<?xml version="1.0" encoding="UTF-8" standalone="no"?>
<!DOCTYPE svg PUBLIC "-//W3C//DTD SVG 1.1//EN" "http://www.w3.org/Graphics/SVG/1.1/DTD/svg11.dtd">
<svg version="1.1" xmlns="http://www.w3.org/2000/svg" xmlns:xlink="http://www.w3.org/1999/xlink" preserveAspectRatio="xMidYMid meet" viewBox="0 0 512 512" width="512" height="512"><defs><path d="M296.75 88.72C301.88 88.25 305.16 94.06 302.1 98.21C282.88 124.26 241.75 180.03 224.69 203.17C217.61 212.76 225.42 226.16 237.25 224.74C266.2 221.26 339.95 212.38 373.44 208.35C376.92 207.93 379.36 211.71 377.55 214.71C360.84 242.47 362.9 239.06 358.12 246.99C316.16 316.69 256.07 373.69 184.26 411.92C178.41 415.04 198.46 404.36 174.58 417.08C174.58 417.08 137.02 440.5 137.02 440.5C124.02 449.9 97.68 468.93 83.35 479.29C81.74 480.46 83.13 482.97 84.98 482.22C130.58 463.68 147.1 456.96 165.88 449.33C260.73 410.76 338.36 339.09 384.37 247.62C387.45 241.5 395.14 226.2 407.45 201.73C410.8 196.92 412.89 193.92 413.72 192.72C418.1 186.43 412.99 177.92 405.38 178.82C377.11 182.15 306.17 190.52 276.47 194.03C271.68 194.59 268.5 189.21 271.31 185.29C280.64 172.25 303.96 139.65 341.28 87.5C348.74 79.98 353.4 75.28 355.27 73.4C361.59 67.02 356.45 56.24 347.52 57.12C298.22 62 164.14 75.26 111.68 80.44C108.74 80.73 108.07 84.73 110.76 85.96C118.01 89.27 123.11 91.59 128.64 94.12C140.67 99.61 153.93 101.86 167.1 100.65C195.68 98.02 266.8 91.48 296.75 88.72Z" id="g2m0ejMNmR"/></defs><g><g><use xlink:href="#g2m0ejMNmR" opacity="1" fill="#000000" fill-opacity="1"/></g></g></svg>