<?xml version="1.0" encoding="UTF-8" standalone="no"?>
<!DOCTYPE svg PUBLIC "-//W3C//DTD SVG 1.1//EN" "http://www.w3.org/Graphics/SVG/1.1/DTD/svg11.dtd">
<svg version="1.1" xmlns="http://www.w3.org/2000/svg" xmlns:xlink="http://www.w3.org/1999/xlink" preserveAspectRatio="xMidYMid meet" viewBox="0 0 512 512" width="512" height="512"><defs><path d="M301.55 92.38C306.82 91.86 310.5 97.46 307.94 102.09C291.75 131.3 246.7 212.59 229.88 242.95C228.18 246.02 228.73 249.85 231.22 252.32C247.78 268.69 273.79 294.4 285.49 305.97C303.35 323.62 311.41 348.9 307.06 373.63C305.74 381.15 308.45 365.73 307.06 373.63C303.46 394.15 283.51 407.55 263.15 403.13C240.12 398.14 191.69 387.63 164.5 381.73C162.45 381.28 161.51 384.16 163.42 385.01C217.57 409.1 252.43 430.48 268 449.15C280.71 464.38 294.04 465.21 308 451.63C314.85 444.97 320.83 437.47 325.8 429.3C336.04 412.47 324.3 431.76 325.8 429.3C355.54 380.41 346.53 317.3 304.28 278.7C278.39 255.04 265.29 242.85 265 242.15C264.3 240.48 293.69 190.06 353.15 90.9C360.62 78.46 350.88 62.78 336.42 63.95C291.53 67.59 175.04 77.04 126.05 81.01C122.22 81.32 121.28 86.51 124.76 88.15C132.41 91.75 143.07 96.77 150.84 100.42C158.8 104.17 167.62 105.69 176.38 104.82C203.9 102.08 273.84 95.14 301.55 92.38Z" id="a8cmSHkvQ"/></defs><g><g><use xlink:href="#a8cmSHkvQ" opacity="1" fill="#000000" fill-opacity="1"/></g></g></svg>