<?xml version="1.0" encoding="UTF-8" standalone="no"?>
<!DOCTYPE svg PUBLIC "-//W3C//DTD SVG 1.1//EN" "http://www.w3.org/Graphics/SVG/1.1/DTD/svg11.dtd">
<svg version="1.1" xmlns="http://www.w3.org/2000/svg" xmlns:xlink="http://www.w3.org/1999/xlink" preserveAspectRatio="xMidYMid meet" viewBox="0 0 512 512" width="512" height="512"><defs><path d="M255.73 159.84C265.83 158.99 273.9 168.12 271.81 178.04C264.04 214.86 245.41 303.26 237.77 339.53C235.19 351.74 243.54 363.55 255.9 365.2C291.72 369.99 381.14 381.94 418.17 386.89C424.66 387.76 429.1 380.53 425.4 375.14C419.92 367.14 415.34 360.45 410.43 353.28C402.7 342 389.69 335.52 376.04 336.13C353.83 337.13 302.24 339.46 278.3 340.54C271.61 340.84 266.48 334.69 267.98 328.17C277.58 286.36 301.07 184.13 310.09 144.88C312.95 132.4 302.51 120.88 289.81 122.52C245.45 128.25 127.7 143.44 80.62 149.51C76.78 150.01 75.88 155.18 79.33 156.94C85.26 159.98 87.67 161.22 92.59 163.73C103.31 169.23 115.37 171.61 127.38 170.6C157.1 168.11 226.39 162.3 255.73 159.84Z" id="h1KcsDT32s"/></defs><g><g><use xlink:href="#h1KcsDT32s" opacity="1" fill="#000000" fill-opacity="1"/></g></g></svg>