<?xml version="1.0" encoding="UTF-8" standalone="no"?>
<!DOCTYPE svg PUBLIC "-//W3C//DTD SVG 1.1//EN" "http://www.w3.org/Graphics/SVG/1.1/DTD/svg11.dtd">
<svg version="1.1" xmlns="http://www.w3.org/2000/svg" xmlns:xlink="http://www.w3.org/1999/xlink" preserveAspectRatio="xMidYMid meet" viewBox="0 0 512 512" width="512" height="512"><defs><path d="M240.56 86.69C247.53 86.24 253.26 92.1 252.65 99.06C250.15 127.49 243.74 200.37 241.22 229.01C240.65 235.43 245.95 240.84 252.38 240.42C276.12 238.85 335.94 234.91 359.89 233.33C365.7 232.94 370.44 237.94 369.75 243.73C364.98 283.8 352.28 390.49 347.58 429.96C346.55 438.65 350.45 447.18 357.69 452.09C360.68 454.11 356.57 451.33 359.24 453.14C365.33 457.26 373.62 453.44 374.44 446.13C377.67 417.33 385.75 345.33 398.67 230.14C401.62 223.57 403.47 219.46 404.21 217.82C406.48 212.76 402.57 207.1 397.03 207.44C371.27 209.01 306.3 212.99 280.58 214.57C274.08 214.96 268.77 209.46 269.4 202.98C270.95 187.07 274.83 147.3 281.03 83.66C283.41 76.66 284.89 72.28 285.49 70.53C287.21 65.48 283.24 60.31 277.92 60.66C242.74 62.96 146.24 69.27 110.52 71.6C107.67 71.79 106.62 75.45 108.95 77.11C113.61 80.44 117.33 83.1 121.16 85.83C128.32 90.95 137.03 93.43 145.8 92.86C167.41 91.45 218.89 88.1 240.56 86.69Z" id="a19GUYMgFi"/></defs><g><g><use xlink:href="#a19GUYMgFi" opacity="1" fill="#000000" fill-opacity="1"/></g></g></svg>