<?xml version="1.0" encoding="UTF-8" standalone="no"?>
<!DOCTYPE svg PUBLIC "-//W3C//DTD SVG 1.1//EN" "http://www.w3.org/Graphics/SVG/1.1/DTD/svg11.dtd">
<svg version="1.1" xmlns="http://www.w3.org/2000/svg" xmlns:xlink="http://www.w3.org/1999/xlink" preserveAspectRatio="xMidYMid meet" viewBox="0 0 512 512" width="512" height="512"><defs><path d="M308.92 328.18C345 373.58 390.57 410.55 442.43 436.49C451.41 440.98 442.23 436.4 461.87 446.22C467.47 449.02 465.17 457.49 458.92 457.08C431.99 455.31 396.29 452.97 373.54 451.47C342.53 449.44 314.31 432.85 297.44 406.74C257.31 344.63 146.37 172.92 101.9 104.09C98.5 98.83 95.58 93.27 93.18 87.49C87.81 74.57 90.79 81.74 89.29 78.14C85.57 69.19 97.51 62.15 103.54 69.73C155.57 135.21 260.4 267.13 308.92 328.18Z" id="a2588eFeqn"/></defs><g><g><use xlink:href="#a2588eFeqn" opacity="1" fill="#000000" fill-opacity="1"/></g></g></svg>