<?xml version="1.0" encoding="UTF-8" standalone="no"?>
<!DOCTYPE svg PUBLIC "-//W3C//DTD SVG 1.1//EN" "http://www.w3.org/Graphics/SVG/1.1/DTD/svg11.dtd">
<svg version="1.1" xmlns="http://www.w3.org/2000/svg" xmlns:xlink="http://www.w3.org/1999/xlink" preserveAspectRatio="xMidYMid meet" viewBox="0 0 512 512" width="512" height="512"><defs><path d="M399.03 219.48C404.69 219.08 410.2 217.53 415.24 214.94C421.53 211.71 418.5 213.26 421.23 211.86C435.79 204.37 453.65 208.83 462.99 222.27C466.92 227.93 466.7 227.62 471.71 234.83C476.48 241.71 471.86 251.17 463.5 251.63C380.85 256.16 152.4 268.71 69.84 273.24C57.44 273.92 45.39 269.04 36.96 259.92C34.43 257.19 36.65 259.59 33.25 255.91C29.66 252.02 32.15 245.7 37.44 245.32C111.47 240.03 324.09 224.84 399.03 219.48Z" id="a1tREGBdxD"/></defs><g><g><use xlink:href="#a1tREGBdxD" opacity="1" fill="#000000" fill-opacity="1"/></g></g></svg>