<?xml version="1.0" encoding="UTF-8" standalone="no"?>
<!DOCTYPE svg PUBLIC "-//W3C//DTD SVG 1.1//EN" "http://www.w3.org/Graphics/SVG/1.1/DTD/svg11.dtd">
<svg version="1.1" xmlns="http://www.w3.org/2000/svg" xmlns:xlink="http://www.w3.org/1999/xlink" preserveAspectRatio="xMidYMid meet" viewBox="0 0 512 512" width="512" height="512"><defs><path d="M242.35 86.94C242.35 270.89 242.35 385.86 242.35 431.85C242.35 438.13 243.97 444.3 247.04 449.77C252.59 459.63 252.65 459.75 255.23 464.33C260.49 473.69 274.75 469.96 274.75 459.22C274.75 408.53 274.75 281.82 274.75 79.08C275.8 77.74 276.46 76.9 276.72 76.56C285.16 65.77 280.6 49.88 267.72 45.19C259.03 42.03 256.51 41.11 247.19 37.72C237.8 34.3 228.57 43.13 231.57 52.65C233.01 57.22 236.6 68.65 242.35 86.94Z" id="b4EGnYzj9y"/></defs><g><g><use xlink:href="#b4EGnYzj9y" opacity="1" fill="#000000" fill-opacity="1"/><g><use xlink:href="#b4EGnYzj9y" opacity="1" fill-opacity="0" stroke="#000000" stroke-width="1" stroke-opacity="1"/></g></g></g></svg>