<?xml version="1.0" encoding="UTF-8" standalone="no"?>
<!DOCTYPE svg PUBLIC "-//W3C//DTD SVG 1.1//EN" "http://www.w3.org/Graphics/SVG/1.1/DTD/svg11.dtd">
<svg version="1.1" xmlns="http://www.w3.org/2000/svg" xmlns:xlink="http://www.w3.org/1999/xlink" preserveAspectRatio="xMidYMid meet" viewBox="0 0 512 512" width="512" height="512"><defs><path d="M323.54 141.74C322.95 149.6 320.4 157.19 316.15 163.83C300.32 188.5 291.41 202.4 283.6 214.57C252.75 262.67 214.37 305.51 169.93 341.45C153.97 354.36 124.94 377.83 96.92 400.49C96.23 401.05 96.96 402.13 97.74 401.69C156.95 368.28 210.7 329.62 258.99 285.72C307.57 241.56 350.05 196.41 386.46 150.27C388.67 147.47 387.63 143.33 384.36 141.9C372.59 136.76 348.51 126.23 337.93 121.6C331.85 118.94 324.96 123.08 324.46 129.7C324.1 134.5 323.93 136.62 323.54 141.74Z" id="b1zNSaWdGx"/></defs><g><g><use xlink:href="#b1zNSaWdGx" opacity="1" fill="#000000" fill-opacity="1"/><g><use xlink:href="#b1zNSaWdGx" opacity="1" fill-opacity="0" stroke="#000000" stroke-width="1" stroke-opacity="1"/></g></g></g></svg>