<?xml version="1.0" encoding="UTF-8" standalone="no"?>
<!DOCTYPE svg PUBLIC "-//W3C//DTD SVG 1.1//EN" "http://www.w3.org/Graphics/SVG/1.1/DTD/svg11.dtd">
<svg version="1.1" xmlns="http://www.w3.org/2000/svg" xmlns:xlink="http://www.w3.org/1999/xlink" preserveAspectRatio="xMidYMid meet" viewBox="0 0 512 512" width="512" height="512"><defs><path d="M227.84 81.08C229.01 193.82 229.01 259.26 227.84 277.39C227.3 285.84 224.7 296.71 220.04 309.97C211.64 333.91 200.43 356.77 186.65 378.07C176.44 393.86 153.44 429.42 139.95 450.27C139.38 451.17 140.57 452.14 141.33 451.39C155.54 437.44 177.29 416.07 187.72 405.83C204.1 389.75 218.42 371.7 230.37 352.11C236.17 342.59 238.13 339.38 244.56 328.83C254.25 312.93 259.38 294.67 259.38 276.05C259.38 250.18 259.38 185.5 259.38 82.03C260.6 77.31 261.35 74.36 261.66 73.19C263.2 67.18 259.38 61.11 253.3 59.91C245.11 58.29 229.25 55.16 220.44 53.42C217.21 52.78 214.68 56.18 216.22 59.09C217.77 62.02 221.64 69.36 227.84 81.08Z" id="b2NRAtGpdp"/></defs><g><g><use xlink:href="#b2NRAtGpdp" opacity="1" fill="#000000" fill-opacity="1"/></g></g></svg>