<?xml version="1.0" encoding="UTF-8" standalone="no"?>
<!DOCTYPE svg PUBLIC "-//W3C//DTD SVG 1.1//EN" "http://www.w3.org/Graphics/SVG/1.1/DTD/svg11.dtd">
<svg version="1.1" xmlns="http://www.w3.org/2000/svg" xmlns:xlink="http://www.w3.org/1999/xlink" preserveAspectRatio="xMidYMid meet" viewBox="0 0 512 512" width="512" height="512"><defs><path d="M367.76 140.72C375.69 140.08 382.15 147 380.94 154.87C373.64 202.29 353.89 330.67 346.54 378.48C345.22 387.01 347.84 395.68 353.67 402.05C357.87 406.66 357.69 406.46 361 410.09C366.4 416 376.24 412.89 377.25 404.95C384.06 351.85 402.43 208.53 409.37 154.39C410.64 144.47 413.17 134.76 416.91 125.48C418.39 121.8 415.93 127.91 417.09 125.03C420.39 116.84 413.84 108.07 405.06 108.9C340.56 115.01 157.61 132.35 90.94 138.66C88.29 138.91 87.49 142.4 89.78 143.77C95.53 147.23 103.6 152.08 108.85 155.24C115.16 159.03 122.51 160.75 129.85 160.15C180.54 156.01 317.92 144.79 367.76 140.72Z" id="aHNG9bXmj"/></defs><g><g><use xlink:href="#aHNG9bXmj" opacity="1" fill="#000000" fill-opacity="1"/></g></g></svg>