<?xml version="1.0" encoding="UTF-8" standalone="no"?>
<!DOCTYPE svg PUBLIC "-//W3C//DTD SVG 1.1//EN" "http://www.w3.org/Graphics/SVG/1.1/DTD/svg11.dtd">
<svg version="1.1" xmlns="http://www.w3.org/2000/svg" xmlns:xlink="http://www.w3.org/1999/xlink" preserveAspectRatio="xMidYMid meet" viewBox="0 0 512 512" width="512" height="512"><defs><path d="M385.09 227.62C388.43 227.24 390.57 231.09 388.49 233.73C384.72 238.52 389.61 232.31 388.49 233.73C388.49 233.73 351.22 281.88 351.22 281.88C344.69 290.46 334.51 303.85 325.72 315.4C325.08 316.24 326.25 317.27 327.01 316.53C339.91 303.87 372.16 272.23 423.77 221.6C431.66 214.86 436.59 210.64 438.57 208.95C447.09 201.66 444.23 187.83 433.51 184.53C427.78 182.76 427.85 182.78 420.26 180.44C410.44 177.41 399.8 178.68 390.97 183.93C386.18 186.77 389.3 184.92 385.41 187.22C373.27 194.43 359.81 199.15 345.83 201.09C289.21 208.95 129 231.2 69.5 239.46C67.97 239.68 67.82 241.83 69.31 242.25C79.88 245.24 94.05 249.24 101.88 251.45C115.27 255.23 129.28 256.38 143.11 254.82C193.31 249.18 332.5 233.53 385.09 227.62Z" id="kFj51WXvZ"/></defs><g><g><use xlink:href="#kFj51WXvZ" opacity="1" fill="#000000" fill-opacity="1"/></g></g></svg>