<?xml version="1.0" encoding="UTF-8" standalone="no"?>
<!DOCTYPE svg PUBLIC "-//W3C//DTD SVG 1.1//EN" "http://www.w3.org/Graphics/SVG/1.1/DTD/svg11.dtd">
<svg version="1.1" xmlns="http://www.w3.org/2000/svg" xmlns:xlink="http://www.w3.org/1999/xlink" preserveAspectRatio="xMidYMid meet" viewBox="0 0 512 512" width="512" height="512"><defs><path d="M166.41 110.84C161.37 261.49 158.22 355.64 156.96 393.3C156.81 397.78 160.35 401.51 164.83 401.59C193.69 402.15 265.83 403.53 381.26 405.75C386.49 404.15 389.76 403.15 391.07 402.75C402.54 399.23 414.93 404.06 421.01 414.42C423.41 418.51 421.96 416.05 424.79 420.87C428.43 427.08 423.96 434.89 416.76 434.89C379.99 434.89 288.07 434.89 141 434.89C132.21 436.68 126.72 437.8 124.53 438.24C116.71 439.83 110.42 431.84 113.8 424.61C115.57 420.84 115.84 420.26 118.39 414.81C121.19 408.83 122.8 402.36 123.14 395.77C126.01 338.78 134.21 176.06 137.1 118.63C137.36 113.5 136.49 108.38 134.56 103.62C130.86 94.49 126.64 84.09 123.92 77.4C121.5 71.44 128.21 65.93 133.59 69.44C142.9 75.53 155.69 83.89 165.6 90.37C172.77 95.06 173.25 105.38 166.56 110.72C166.54 110.74 166.49 110.78 166.41 110.84Z" id="a3gt4gptMK"/></defs><g><g><use xlink:href="#a3gt4gptMK" opacity="1" fill="#000000" fill-opacity="1"/></g></g></svg>