<?xml version="1.0" encoding="UTF-8" standalone="no"?>
<!DOCTYPE svg PUBLIC "-//W3C//DTD SVG 1.1//EN" "http://www.w3.org/Graphics/SVG/1.1/DTD/svg11.dtd">
<svg version="1.1" xmlns="http://www.w3.org/2000/svg" xmlns:xlink="http://www.w3.org/1999/xlink" preserveAspectRatio="xMidYMid meet" viewBox="0 0 512 512" width="512" height="512"><defs><path d="M361.88 71.31C366.18 84.66 368.36 98.61 368.36 112.63C368.36 171.58 368.36 329.68 368.36 389.23C368.36 399.07 360.06 406.87 350.24 406.26C296.02 402.89 147.79 393.66 92.65 390.23C87.19 389.89 83.75 396 86.87 400.49C89.93 404.89 86.53 399.99 88.37 402.64C97.08 415.17 111.02 423.04 126.24 424.03C170.19 426.89 274.99 433.71 318.2 436.52C336.59 437.72 354.62 442.16 371.46 449.64C377.62 452.37 376.44 451.85 384.05 455.23C392.62 459.04 402.27 452.77 402.27 443.39C402.27 440.6 402.27 433.62 402.27 422.46L402.27 95.46C403.7 92.87 404.59 91.25 404.95 90.6C409.1 83.05 406.8 73.58 399.66 68.76C389.8 62.11 375.21 52.27 365.94 46.02C360.83 42.57 354.23 47.52 356.12 53.4C358.57 61.01 359.58 64.15 361.88 71.31Z" id="c3Bn4uRT26"/></defs><g><g><use xlink:href="#c3Bn4uRT26" opacity="1" fill="#000000" fill-opacity="1"/></g></g></svg>