<?xml version="1.0" encoding="UTF-8" standalone="no"?>
<!DOCTYPE svg PUBLIC "-//W3C//DTD SVG 1.1//EN" "http://www.w3.org/Graphics/SVG/1.1/DTD/svg11.dtd">
<svg version="1.1" xmlns="http://www.w3.org/2000/svg" xmlns:xlink="http://www.w3.org/1999/xlink" preserveAspectRatio="xMidYMid meet" viewBox="0 0 512 512" width="512" height="512"><defs><path d="M214.99 80.85C211.61 85.25 209.75 90.63 209.71 96.17C209.17 161.42 207.68 344.52 207.15 408.75C207.1 415.19 213.69 419.55 219.6 416.99C253.79 402.2 327.21 370.42 357.25 357.42C360.62 355.97 363.14 360.69 360.05 362.67C332.32 380.55 271.82 419.54 242.13 438.67C228.35 447.56 215.43 457.72 203.55 469.03C200.01 472.39 205.41 467.26 201.41 471.07C191.22 480.76 178.74 487.7 165.13 491.24C159.71 492.65 169.28 490.16 165.13 491.24C155.12 493.84 146.95 483.03 152.19 474.11C155.38 468.67 156.39 466.95 160.99 459.11C165.68 451.12 168.31 442.09 168.64 432.83C171.14 363.43 178.13 168.96 180.63 99.46C180.95 90.48 179.44 81.53 176.18 73.15C173.42 66.05 169.55 56.11 166.66 48.68C165.24 45.04 169.21 41.65 172.58 43.63C182.37 49.37 204.68 62.45 215.26 68.65C218.59 70.6 219.46 75.04 217.1 78.11C215.63 80.01 216.3 79.15 214.99 80.85Z" id="h71I1vjJxB"/></defs><g><g><use xlink:href="#h71I1vjJxB" opacity="1" fill="#000000" fill-opacity="1"/><g><use xlink:href="#h71I1vjJxB" opacity="1" fill-opacity="0" stroke="#000000" stroke-width="1" stroke-opacity="1"/></g></g></g></svg>