<?xml version="1.0" encoding="UTF-8" standalone="no"?>
<!DOCTYPE svg PUBLIC "-//W3C//DTD SVG 1.1//EN" "http://www.w3.org/Graphics/SVG/1.1/DTD/svg11.dtd">
<svg version="1.1" xmlns="http://www.w3.org/2000/svg" xmlns:xlink="http://www.w3.org/1999/xlink" preserveAspectRatio="xMidYMid meet" viewBox="0 0 512 512" width="512" height="512"><defs><path d="M293.31 79.26C293.31 248.45 293.31 354.19 293.31 396.49C293.31 401.59 289.34 405.8 284.25 406.09C258.82 407.55 203.94 410.7 181.59 411.99C177.86 412.2 177.47 417.56 181.14 418.31C200.84 422.34 226.52 427.6 243.87 431.15C266.88 435.86 287.28 449.04 301.04 468.08C304.95 473.48 302.59 470.21 308.32 478.15C312.16 483.46 320.57 480.75 320.57 474.18C320.57 421.94 320.57 291.33 320.57 82.36C323.58 75.89 325.46 71.84 326.21 70.22C328.84 64.57 327.08 57.85 322.01 54.22C313.54 48.14 304.17 41.41 297.52 36.64C291.4 32.25 283.11 37.86 284.91 45.18C286.03 49.72 288.83 61.08 293.31 79.26Z" id="boD8ir9kF"/></defs><g><g><use xlink:href="#boD8ir9kF" opacity="1" fill="#000000" fill-opacity="1"/></g></g></svg>