<?xml version="1.0" encoding="UTF-8" standalone="no"?>
<!DOCTYPE svg PUBLIC "-//W3C//DTD SVG 1.1//EN" "http://www.w3.org/Graphics/SVG/1.1/DTD/svg11.dtd">
<svg version="1.1" xmlns="http://www.w3.org/2000/svg" xmlns:xlink="http://www.w3.org/1999/xlink" preserveAspectRatio="xMidYMid meet" viewBox="0 0 512 512" width="512" height="512"><defs><path d="M330.04 397.15C346.04 410.87 353.78 431.9 350.5 452.72C349.69 457.84 351.56 446.02 350.5 452.72C349.07 461.8 337.22 464.38 332.15 456.71C327.96 450.39 323.84 444.17 318.18 435.63C313.56 428.64 308.06 422.26 301.84 416.65C265.73 384.09 163.55 291.98 126.63 258.69C123.75 256.1 123.7 251.6 126.52 248.94C163.46 214.1 267.08 116.37 303.53 81.99C308.45 77.34 311.36 70.95 311.63 64.18C311.83 58.95 311.79 60.11 311.93 56.45C312.16 50.71 319.62 48.64 322.78 53.44C327.95 61.3 336.43 74.19 342.38 83.23C345.76 88.38 344.1 95.31 338.75 98.37C337.38 99.15 333.96 101.11 328.48 104.24C243.64 180.96 190.62 228.91 169.41 248.09C166.02 251.16 166.09 256.52 169.56 259.5C206.81 291.44 296.64 368.5 330.04 397.15Z" id="aYzMq0lYd"/></defs><g><g><use xlink:href="#aYzMq0lYd" opacity="1" fill="#000000" fill-opacity="1"/></g></g></svg>