<?xml version="1.0" encoding="UTF-8" standalone="no"?>
<!DOCTYPE svg PUBLIC "-//W3C//DTD SVG 1.1//EN" "http://www.w3.org/Graphics/SVG/1.1/DTD/svg11.dtd">
<svg version="1.1" xmlns="http://www.w3.org/2000/svg" xmlns:xlink="http://www.w3.org/1999/xlink" preserveAspectRatio="xMidYMid meet" viewBox="0 0 512 512" width="512" height="512"><defs><path d="M350.45 369.55C361.35 368.78 372.29 369.29 383.07 371.06C393.67 372.79 394.81 372.98 401.8 374.13C408.04 375.15 408.01 384.13 401.76 385.11C344.56 394.04 196.23 417.22 136.28 426.59C122.82 428.69 109.06 427.35 96.27 422.69C91.25 420.87 87.49 419.5 80.42 416.93C76.46 415.49 75.69 410.21 79.08 407.7C85.56 402.91 89.47 400.02 94.04 396.63C105.5 388.16 114.85 377.16 121.37 364.49C143.72 321.12 205.8 200.63 229.38 154.85C231.81 150.14 232.81 144.83 232.26 139.56C231.63 133.44 230.89 126.27 230.34 120.93C229.97 117.35 234.47 115.46 236.76 118.23C243.32 126.17 257.24 143 264.27 151.51C267.02 154.84 266.09 159.84 262.33 161.95C260.26 163.11 260.58 162.93 258.34 164.19C254.22 166.5 250.92 170.02 248.87 174.28C228.73 216.17 172.56 332.97 152.7 374.28C150.67 378.5 153.95 383.34 158.63 383.01C200.27 380.09 309.99 372.39 350.45 369.55Z" id="cgmMc9iG4"/></defs><g><g><use xlink:href="#cgmMc9iG4" opacity="1" fill="#000000" fill-opacity="1"/></g></g></svg>