<?xml version="1.0" encoding="UTF-8" standalone="no"?>
<!DOCTYPE svg PUBLIC "-//W3C//DTD SVG 1.1//EN" "http://www.w3.org/Graphics/SVG/1.1/DTD/svg11.dtd">
<svg version="1.1" xmlns="http://www.w3.org/2000/svg" xmlns:xlink="http://www.w3.org/1999/xlink" preserveAspectRatio="xMidYMid meet" viewBox="0 0 512 512" width="512" height="512"><defs><path d="M105.29 166.48C110.77 163.33 117.7 164.31 122.09 168.86C151.02 198.89 201.33 251.09 223 273.59C223 273.59 316.35 357.88 316.35 357.88C322.22 362.48 308 351.33 318.31 359.41C335.93 373.23 358.05 380.03 380.4 378.49C401.63 377.03 452.33 373.54 478.99 371.71C480.57 371.6 480.83 369.38 479.32 368.91C432.54 354.17 401.94 344.54 380.78 337.88C292.75 310.16 215.66 255.48 160.4 181.56C151.96 170.28 151.15 169.2 127.6 137.69C123.04 131.59 113.82 131.89 109.66 138.26C108.37 140.23 111.37 135.64 109.66 138.26C105.38 144.82 100.51 150.97 95.11 156.64C88.51 163.58 75.34 177.42 68.37 184.74C67.32 185.85 68.66 187.56 69.98 186.8C78.91 181.66 96.65 171.45 105.29 166.48Z" id="h4gqk6OeGt"/></defs><g><g><use xlink:href="#h4gqk6OeGt" opacity="1" fill="#000000" fill-opacity="1"/></g></g></svg>