<?xml version="1.0" encoding="UTF-8" standalone="no"?>
<!DOCTYPE svg PUBLIC "-//W3C//DTD SVG 1.1//EN" "http://www.w3.org/Graphics/SVG/1.1/DTD/svg11.dtd">
<svg version="1.1" xmlns="http://www.w3.org/2000/svg" xmlns:xlink="http://www.w3.org/1999/xlink" preserveAspectRatio="xMidYMid meet" viewBox="0 0 512 512" width="512" height="512"><defs><path d="M165.38 80.86C162.24 84.57 160.37 89.17 160.01 94.01C158.03 121.31 152.57 196.37 150.57 223.82C150.32 227.35 153.27 230.29 156.8 230C205.09 226.16 336.98 215.66 383.71 211.94C390.69 211.38 396.04 218.03 394.01 224.73C393.35 226.87 391.73 232.24 389.12 240.84C374.6 362.9 365.53 439.18 361.9 469.7C361.28 474.91 354.09 475.82 352.19 470.93C349.23 463.32 347.23 458.18 344.16 450.28C339.71 438.84 338.14 426.47 339.58 414.28C343.56 380.54 354.14 291.02 358.33 255.56C358.94 250.42 354.66 246.02 349.5 246.48C304.24 250.56 183.07 261.49 138.95 265.47C130.66 266.22 123.63 259.43 124.1 251.11C126.13 214.75 131.55 117.97 133.64 80.74C134.06 73.18 133.22 65.6 131.14 58.32C129.55 52.77 128.44 48.88 126.98 43.77C125.76 39.51 130.65 36.14 134.2 38.79C142.39 44.9 158.21 56.7 166.96 63.22C171.39 66.53 172.12 72.89 168.55 77.11C166.95 79 167.33 78.55 165.38 80.86Z" id="b6FV0Xsczj"/></defs><g><g><use xlink:href="#b6FV0Xsczj" opacity="1" fill="#000000" fill-opacity="1"/></g></g></svg>