<?xml version="1.0" encoding="UTF-8" standalone="no"?>
<!DOCTYPE svg PUBLIC "-//W3C//DTD SVG 1.1//EN" "http://www.w3.org/Graphics/SVG/1.1/DTD/svg11.dtd">
<svg version="1.1" xmlns="http://www.w3.org/2000/svg" xmlns:xlink="http://www.w3.org/1999/xlink" preserveAspectRatio="xMidYMid meet" viewBox="0 0 512 512" width="512" height="512"><defs><path d="M136.23 422C136.4 435.45 147.36 446.26 160.81 446.26C200.42 446.26 300.7 446.26 341.74 446.26C352.89 446.26 363.78 442.9 373 436.63C378.62 432.8 370.53 438.31 373.46 436.32C389.88 425.14 397.04 404.51 391.07 385.55C386.79 371.94 377.07 341.09 371.06 321.99C370.63 320.64 368.72 320.66 368.33 322.02C362.98 340.54 353.16 374.54 349.04 388.8C344.61 404.13 330.69 414.77 314.73 415.02C283.27 415.52 211.6 416.64 179.1 417.14C167.18 417.33 157.41 407.71 157.41 395.78C157.4 340.44 157.38 186.48 157.37 128.73C157.37 122.43 159.3 116.28 162.91 111.11C163.53 110.21 162.18 112.15 163.38 110.43C164.83 108.35 164.28 105.49 162.16 104.1C154.16 98.86 136.7 87.44 129.37 82.64C126.79 80.95 123.48 83.29 124.21 86.29C125.82 92.81 127.67 100.34 129.04 105.94C131.16 114.57 132.29 123.4 132.41 132.28C133.23 195.08 135.43 361.38 136.23 422Z" id="aLrlXV4LY"/></defs><g><g><use xlink:href="#aLrlXV4LY" opacity="1" fill="#000000" fill-opacity="1"/></g></g></svg>