<?xml version="1.0" encoding="UTF-8" standalone="no"?>
<!DOCTYPE svg PUBLIC "-//W3C//DTD SVG 1.1//EN" "http://www.w3.org/Graphics/SVG/1.1/DTD/svg11.dtd">
<svg version="1.1" xmlns="http://www.w3.org/2000/svg" xmlns:xlink="http://www.w3.org/1999/xlink" preserveAspectRatio="xMidYMid meet" viewBox="0 0 512 512" width="512" height="512"><defs><path d="M161.79 122.06L311.15 102.67C304.28 114.11 280.58 144.61 240.04 194.15C199.49 243.7 170.4 277.95 152.75 296.91C118.88 336.85 101.54 366.24 100.74 385.09C100.19 398.03 108.37 410.48 125.28 422.44C135.98 430.01 148.34 434.91 161.33 436.72C182.39 439.67 157.38 436.17 161.33 436.72C231.24 446.5 302.12 447.15 372.19 438.66C379.21 437.81 362.38 439.85 386.31 436.95C400.01 435.29 412.95 429.78 423.64 421.06C427.07 418.27 420.37 423.73 423.64 421.06C434.16 412.48 439.03 398.74 436.25 385.45C432.55 367.74 424.71 330.22 420.69 311C420.03 307.84 415.5 307.84 414.85 311.01C410.97 329.92 403.61 365.78 400.08 383C397.29 396.56 386.39 406.97 372.71 409.13C351.5 412.48 362.17 410.79 353.85 412.11C296.13 421.22 237.28 420.38 179.85 409.64C168.05 407.43 175.54 408.83 152.77 404.57C136.77 401.58 128.08 384.1 135.36 369.54C138.84 362.58 132.45 375.36 135.36 369.54C146.91 346.43 161.27 324.83 178.11 305.24C212.95 264.73 302.57 160.48 340.03 116.92C340.03 116.92 365.72 89.53 365.72 89.53C370.27 85.08 368.01 87.28 371.95 83.44C377.1 78.4 372.76 69.73 365.64 70.83C324.39 77.19 225.74 92.42 185.06 98.7C168.2 101.31 150.96 99.77 134.82 94.24C129.12 92.28 130.86 92.88 123.73 90.43C119.17 88.87 115.55 94.43 118.82 97.97C124.16 103.73 133.62 113.95 140.45 121.32C143.55 124.66 148.27 125.97 152.65 124.71C153.87 124.35 156.92 123.47 161.79 122.06Z" id="auCdcHicC"/></defs><g><g><use xlink:href="#auCdcHicC" opacity="1" fill="#000000" fill-opacity="1"/></g></g></svg>