<?xml version="1.0" encoding="UTF-8" standalone="no"?>
<!DOCTYPE svg PUBLIC "-//W3C//DTD SVG 1.1//EN" "http://www.w3.org/Graphics/SVG/1.1/DTD/svg11.dtd">
<svg version="1.1" xmlns="http://www.w3.org/2000/svg" xmlns:xlink="http://www.w3.org/1999/xlink" preserveAspectRatio="xMidYMid meet" viewBox="0 0 512 512" width="512" height="512"><defs><path d="M250.06 235.47C246.72 241.98 251.91 249.61 259.19 248.88C288.91 245.89 368.04 237.95 399.48 234.79C403.56 234.38 406.85 238.08 405.96 242.09C397.69 279.18 376.18 375.65 368.28 411.08C366.23 420.28 357.27 426.23 347.99 424.56C328.15 420.99 283.87 413.01 263.68 409.37C261.62 409 260.74 411.89 262.66 412.73C278.88 419.79 310.5 433.57 325.92 440.29C337.17 445.2 345.54 455 348.61 466.88C350.37 473.69 352.12 480.47 354.22 488.58C355.38 493.07 361.42 493.87 363.71 489.84C368.46 481.48 368.34 481.69 371.07 476.88C381.92 457.77 389.83 437.15 394.55 415.69C399.96 391.09 413.48 329.57 435.11 231.15C437.68 221.92 439.29 216.15 439.94 213.84C441.72 207.45 436.32 201.35 429.76 202.35C400.47 206.81 319.89 219.1 288.93 223.82C286.61 224.17 284.89 221.73 285.99 219.67C303.01 187.86 350.51 99.1 367.31 67.7C368.94 64.65 366.56 61 363.1 61.26C329.94 63.82 247.02 70.2 114.34 80.41C93.63 78.16 80.68 76.75 75.5 76.18C72.32 75.83 70.24 79.42 72.12 82.01C78.17 90.35 90.42 107.24 96.22 115.23C99.35 119.55 105.69 119.79 109.14 115.72C110.18 114.49 107.98 117.09 109.38 115.44C112.56 111.69 117.09 109.36 121.99 108.95C162.31 105.62 276.26 96.21 316.74 92.87C319.73 92.62 321.82 95.75 320.46 98.42C304.82 128.85 264.77 206.84 250.06 235.47Z" id="b2zuYs61I"/></defs><g><g><use xlink:href="#b2zuYs61I" opacity="1" fill="#000000" fill-opacity="1"/></g></g></svg>