<?xml version="1.0" encoding="UTF-8" standalone="no"?>
<!DOCTYPE svg PUBLIC "-//W3C//DTD SVG 1.1//EN" "http://www.w3.org/Graphics/SVG/1.1/DTD/svg11.dtd">
<svg version="1.1" xmlns="http://www.w3.org/2000/svg" xmlns:xlink="http://www.w3.org/1999/xlink" preserveAspectRatio="xMidYMid meet" viewBox="0 0 512 512" width="512" height="512"><defs><path d="M146.41 399.28C144.13 401.08 140.75 399.95 140.01 397.14C134.42 376.03 120.63 323.9 115.4 304.1C114.89 302.2 112.09 302.56 112.09 304.53C112.09 323.24 112.09 363.69 112.09 381.71C112.09 392.35 108.81 402.73 102.71 411.45C99.55 415.96 99.62 415.87 96.5 420.32C91.59 427.33 94.48 437.09 102.42 440.3C107.12 442.2 99.67 439.19 102.86 440.48C117.19 446.27 133.51 444.16 145.89 434.9C176.54 412 157.25 426.42 165.07 420.57C253.29 354.63 325.32 269.46 375.7 171.52C380.96 161.29 371.58 179.53 389.69 144.32C397.86 128.44 408.44 113.93 421.07 101.31C424.59 97.78 428.07 94.31 434.58 87.79C435.93 86.45 434.81 84.16 432.92 84.4C419.26 86.12 388 90.07 375.33 91.67C369.67 92.38 365.95 97.94 367.45 103.45C368.17 106.11 367.96 105.33 368.8 108.41C370.26 113.77 369.62 119.5 367.01 124.41C348.55 159.14 343.59 168.46 336.71 181.39C295.8 258.33 239.36 325.93 170.95 379.92C165.08 384.55 172.07 379.04 146.41 399.28Z" id="i21nsUvtPW"/></defs><g><g><use xlink:href="#i21nsUvtPW" opacity="1" fill="#000000" fill-opacity="1"/></g></g></svg>